<svg xmlns="http://www.w3.org/2000/svg" xmlns:xlink="http://www.w3.org/1999/xlink" width="40" height="40" viewBox="0 0 40 40">
    <defs>
        <circle id="a" cx="20" cy="20" r="20"/>
    </defs>
    <g fill="none" fill-rule="evenodd">
        <mask id="b" fill="#fff">
            <use xlink:href="#a"/>
        </mask>
        <use fill="#FF8A48" fill-rule="nonzero" xlink:href="#a"/>
        <g fill="#FFF" fill-rule="nonzero" mask="url(#b)">
            <path d="M14.88 26h11.11v-2.124h6.492l3.311-6.61h-9.802V15H14.88v2.265H8.312L5 23.875h9.88V26zm1.675-1.682V22.19H7.72l1.62-3.23h7.216v-2.268h7.757v2.269h8.758l-1.62 3.229h-7.138v2.128h-7.757zm20.583-5.074c.23 0 .45-.091.612-.256a.87.87 0 0 0 .25-.62.87.87 0 0 0-.251-.616.853.853 0 0 0-.611-.254c-.47 0-.867.37-.867.87 0 .506.397.876.867.876zm-.696-.875c0-.413.305-.725.696-.725.386 0 .69.312.69.725 0 .42-.304.73-.69.73-.39 0-.696-.31-.696-.73zm.515.07h.171l.26.436h.167l-.28-.443c.145-.019.255-.097.255-.278 0-.198-.115-.286-.347-.286h-.375v1.007h.149v-.437zm0-.13v-.312h.203c.104 0 .214.023.214.148 0 .155-.112.163-.239.163h-.178z"/>
        </g>
    </g>
</svg>
