<svg xmlns="http://www.w3.org/2000/svg" xmlns:xlink="http://www.w3.org/1999/xlink" width="40" height="40" viewBox="0 0 40 40">
    <defs>
        <circle id="a" cx="20" cy="20" r="20"/>
    </defs>
    <g fill="none" fill-rule="evenodd">
        <mask id="b" fill="#fff">
            <use xlink:href="#a"/>
        </mask>
        <use fill="#5646FF" fill-rule="nonzero" xlink:href="#a"/>
        <g fill-rule="nonzero" mask="url(#b)">
            <path fill="#E74D89" d="M19.5 1C29.726 1 38 9.277 38 19.492 38 29.707 29.726 38 19.5 38S1 29.723 1 19.508C1 9.293 9.274 1 19.5 1z"/>
            <path fill="#B2215A" d="M20 40C8.969 40 0 31.036 0 20.008 0 8.964 8.969 0 20 0s20 8.964 20 19.992C40 31.021 31.031 40 20 40zm16.86-17.27c-.579-.188-5.282-1.58-10.641-.735 2.234 6.132 3.14 11.138 3.312 12.17 3.844-2.581 6.578-6.68 7.328-11.435zM26.671 35.745c-.25-1.502-1.25-6.727-3.64-12.953a.29.29 0 0 1-.11.032c-9.64 3.363-13.094 10.043-13.406 10.668A17.003 17.003 0 0 0 20 37.09c2.36.016 4.625-.469 6.672-1.345zm-19.36-4.302c.391-.657 5.079-8.416 13.891-11.279.219-.078.453-.14.672-.203a44.53 44.53 0 0 0-1.39-2.894c-8.532 2.55-16.813 2.44-17.563 2.425 0 .172-.016.344-.016.516a17.104 17.104 0 0 0 4.406 11.435zM3.282 16.52c.765.016 7.796.047 15.796-2.08-2.828-5.037-5.89-9.261-6.328-9.871-4.797 2.252-8.36 6.664-9.469 11.951zM16 3.41c.469.626 3.578 4.85 6.375 9.996 6.078-2.284 8.64-5.725 8.953-6.163A17.02 17.02 0 0 0 20 2.94c-1.375 0-2.719.172-4 .47zm17.219 5.804c-.36.485-3.219 4.161-9.532 6.742.391.814.782 1.643 1.141 2.472.125.297.25.594.375.876 5.688-.72 11.328.438 11.89.547A17.025 17.025 0 0 0 33.22 9.214z"/>
        </g>
    </g>
</svg>
