<svg xmlns="http://www.w3.org/2000/svg" width="101" height="30" viewBox="0 0 101 30">
    <g fill="none" fill-rule="evenodd">
        <g>
            <rect width="30" height="30" fill="#FFF" fill-rule="nonzero" rx="8"/>
            <path fill="#5745FE" d="M5.5 19.908h3.165c.823 0 1.868-1.17 2.121-1.867l2.975-7.945C14.806 7.28 17.813 5 20.851 5h3.482v4.97h-3.481c-.95 0-2.121 1.012-2.438 1.867l-2.943 7.945c-1.013 2.69-3.83 5.096-6.806 5.096H5.5v-4.97z"/>
        </g>
        <path fill="#FFF" d="M50.144 18.968c0 2.64-2.112 5.016-5.928 5.016-3.48 0-6.168-1.824-6.216-4.992h3.6c.096 1.344.984 2.232 2.544 2.232 1.584 0 2.52-.84 2.52-2.04 0-3.624-8.64-1.44-8.616-7.512 0-3.024 2.448-4.848 5.904-4.848 3.432 0 5.784 1.752 6 4.776h-3.696c-.072-1.104-.96-1.968-2.4-1.992-1.32-.048-2.304.6-2.304 1.968 0 3.36 8.592 1.488 8.592 7.392zm2.904 4.848V10.52h3.36v13.296h-3.36zm1.704-14.88c-1.2 0-2.064-.864-2.064-1.968S53.552 5 54.752 5c1.176 0 2.064.864 2.064 1.968s-.888 1.968-2.064 1.968zm4.968 14.88V6.056h3.36v17.76h-3.36zm6.672 0V10.52h3.36v13.296h-3.36zm1.704-14.88c-1.2 0-2.064-.864-2.064-1.968S66.896 5 68.096 5c1.176 0 2.064.864 2.064 1.968s-.888 1.968-2.064 1.968zm4.104 8.232c0-4.176 2.736-6.864 6.576-6.864 3.312 0 5.544 1.728 6.264 4.704h-3.624c-.384-1.128-1.272-1.848-2.664-1.848-1.872 0-3.12 1.416-3.12 4.008s1.248 3.984 3.12 3.984c1.392 0 2.256-.624 2.664-1.824h3.624c-.72 2.832-2.952 4.704-6.264 4.704-3.84 0-6.576-2.688-6.576-6.864zm14.448-.048c0-4.152 2.688-6.816 6.072-6.816 2.136 0 3.6 1.008 4.392 2.112V10.52h3.384v13.296h-3.384v-1.944c-.792 1.152-2.304 2.16-4.416 2.16-3.36 0-6.048-2.76-6.048-6.912zm10.464.048c0-2.52-1.68-3.912-3.528-3.912-1.8 0-3.504 1.344-3.504 3.864 0 2.52 1.704 3.96 3.504 3.96 1.848 0 3.528-1.392 3.528-3.912z"/>
    </g>
</svg>
